<?xml version="1.0" standalone="no"?>
<!DOCTYPE svg PUBLIC "-//W3C//DTD SVG 20010904//EN"
 "http://www.w3.org/TR/2001/REC-SVG-20010904/DTD/svg10.dtd">
<svg version="1.0" xmlns="http://www.w3.org/2000/svg"
 width="512.000000pt" height="512.000000pt" viewBox="0 0 512.000000 512.000000"
 preserveAspectRatio="xMidYMid meet">

<g transform="translate(0.000000,512.000000) scale(0.100000,-0.100000)"
fill="#000000" stroke="none">
<path d="M3320 5049 l-45 -70 -42 5 c-24 3 -53 8 -66 11 -21 6 -31 -5 -88 -91
-35 -54 -70 -103 -76 -110 -8 -7 -9 -14 -3 -16 5 -2 -194 -3 -443 -3 l-452 0
-59 -28 c-84 -39 -176 -137 -227 -242 -55 -115 -69 -199 -69 -421 l0 -185 138
3 137 3 6 190 c5 189 12 231 32 218 6 -4 7 -1 2 6 -9 16 34 63 53 56 7 -2 11
-1 8 4 -3 5 8 11 25 15 41 8 484 8 492 0 3 -4 -15 -23 -41 -44 -26 -20 -153
-126 -282 -235 -129 -108 -257 -216 -284 -239 -27 -22 -54 -46 -61 -52 -11
-11 -305 -23 -597 -24 l-138 0 -2 -1357 -3 -1358 -5 1210 c-3 666 -6 1058 -8
872 l-2 -339 -42 8 c-24 4 -49 7 -55 7 -10 0 -14 31 -15 111 -2 61 -5 -220 -8
-624 -5 -735 -5 -735 -8 368 l-2 1102 -95 0 c-86 0 -103 -3 -160 -30 -125 -59
-201 -163 -240 -330 -13 -56 -15 -249 -17 -1365 l-3 -1300 -5 1070 c-3 589 -6
916 -8 729 l-2 -342 -280 -263 -280 -264 0 -852 0 -853 2560 0 2560 0 0 2560
0 2560 -877 0 -878 0 -45 -71z m-242 -299 c20 -10 48 -29 62 -41 l25 -21 -25
16 c-14 9 -47 28 -75 41 -27 14 -44 25 -37 25 7 0 29 -9 50 -20z m174 -155 c6
-11 -1 -7 -17 10 -56 61 -69 79 -32 45 21 -19 43 -44 49 -55z m28 -45 c6 -11
8 -20 6 -20 -3 0 -10 9 -16 20 -6 11 -8 20 -6 20 3 0 10 -9 16 -20z m24 -46
c3 -8 2 -12 -4 -9 -6 3 -10 10 -10 16 0 14 7 11 14 -7z m23 -66 c-3 -8 -6 -5
-6 6 -1 11 2 17 5 13 3 -3 4 -12 1 -19z m10 -40 c-3 -8 -6 -5 -6 6 -1 11 2 17
5 13 3 -3 4 -12 1 -19z m-584 -5 c-18 -2 -48 -2 -65 0 -18 2 -4 4 32 4 36 0
50 -2 33 -4z m150 0 c-18 -2 -48 -2 -65 0 -18 2 -4 4 32 4 36 0 50 -2 33 -4z
m91 -12 c3 -4 -6 -6 -19 -3 -14 2 -25 6 -25 8 0 8 39 4 44 -5z m353 -23 c-3
-8 -6 -5 -6 6 -1 11 2 17 5 13 3 -3 4 -12 1 -19z m10 -60 c-3 -7 -5 -2 -5 12
0 14 2 19 5 13 2 -7 2 -19 0 -25z m-290 -30 c-3 -8 -6 -5 -6 6 -1 11 2 17 5
13 3 -3 4 -12 1 -19z m300 -270 c-1 -51 -3 -10 -3 92 0 102 2 143 3 93 2 -51
2 -135 0 -185z m-290 -11 c-1 -45 -3 -5 -3 88 0 94 2 130 3 82 2 -48 2 -125 0
-170z m101 -94 c-15 -2 -42 -2 -60 0 -18 2 -6 4 27 4 33 0 48 -2 33 -4z
m-1061 -79 c-3 -3 -12 -4 -19 -1 -8 3 -5 6 6 6 11 1 17 -2 13 -5z m70 0 c-3
-3 -12 -4 -19 -1 -8 3 -5 6 6 6 11 1 17 -2 13 -5z m70 0 c-3 -3 -12 -4 -19 -1
-8 3 -5 6 6 6 11 1 17 -2 13 -5z m76 -1 c-7 -2 -21 -2 -30 0 -10 3 -4 5 12 5
17 0 24 -2 18 -5z m-103 -946 c0 -2 -10 -12 -22 -23 l-23 -19 19 23 c18 21 26
27 26 19z m-110 -150 c0 -2 -10 -12 -22 -23 l-23 -19 19 23 c18 21 26 27 26
19z m-40 -51 c0 -2 -8 -10 -17 -17 -16 -13 -17 -12 -4 4 13 16 21 21 21 13z
m-120 -159 c0 -2 -10 -12 -22 -23 l-23 -19 19 23 c18 21 26 27 26 19z m-130
-70 c0 -2 -12 -14 -27 -28 l-28 -24 24 28 c23 25 31 32 31 24z m-733 -1004
c-2 -27 -3 -5 -3 47 0 52 1 74 3 48 2 -27 2 -69 0 -95z m140 -525 c-2 -18 -4
-6 -4 27 0 33 2 48 4 33 2 -15 2 -42 0 -60z"/>
<path d="M2353 4383 c54 -2 139 -2 190 0 51 1 7 3 -98 3 -104 0 -146 -2 -92
-3z"/>
<path d="M2044 4060 c0 -85 2 -120 3 -77 2 42 2 112 0 155 -1 42 -3 7 -3 -78z"/>
<path d="M1732 4080 c0 -19 2 -27 5 -17 2 9 2 25 0 35 -3 9 -5 1 -5 -18z"/>
<path d="M1733 3965 c0 -33 2 -45 4 -27 2 18 2 45 0 60 -2 15 -4 0 -4 -33z"/>
<path d="M1823 3883 c37 -2 97 -2 135 0 37 2 6 3 -68 3 -74 0 -105 -1 -67 -3z"/>
</g>
</svg>
